<?xml version="1.0"?><svg xmlns="http://www.w3.org/2000/svg" viewBox="0 0 1700 1700"><path style="fill:#008CBA;" d="m159.2 517.9c-29.5-56.1-98.9-133-159.2-152.9v-56.82h436.7v56.82c-57.1 7.1-125.8 35.5-106.8 99.5 108.9 240.5 207.9 485.3 315.4 726.5l184.4-345c-71.3-146.2-123.3-294.1-201.5-437.5-25.4-41.3-94.2-41.9-143-43.5v-56.82h408.8v56.82c-36.79 5.08-79.6 12.68-74.6 57.3l115.8 256.2c38-81.4 80.8-161 113.8-244.3 15-66-59.2-67.4-106.5-69.2v-56.82h364.2v56.82c-53.3 3.77-103.7 17.1-133.1 56.5-71.5 110.5-124.5 235.8-180.1 355.8 55 130.1 112.3 259.9 168.5 379.2l311-716.4c-21-47.3-70-63.8-116-74.6v-56.82h343.5v56.8c-15.36 2.39-30.1 8.12-44.3 14.32-26.95 12.51-52.4 37.3-69.5 67.75l-428.4 985.9h-71.79l-203.8-479.7-247.4 479.7h-74.3c-144-301-245.6-619.2-400.8-915.1z"/></svg>
